# xmcd
#
# Track frame offsets: 
#        150
#        17482
#        18835
#        36581
#        39089
#        55471
#        74920
#        88862
#        91157
#        107955
#        128188
#        135973
#        152132
#
# Disc length: 2237 seconds
#
# Revision: 1
# Processed by: cddbd v1.5.2PL0 Copyright (c) Steve Scherf et al.
# Submitted via: ExactAudioCopy v1.3
#
DISCID=ab08bb0d
DTITLE=Punkt - Crime Scenes
DYEAR=2007
DGENRE=Electronic
TTITLE0=Map
TTITLE1=Challenge
TTITLE2=Angels
TTITLE3=Picket Fences
TTITLE4=Comfort
TTITLE5=Her Ghost
TTITLE6=Body Language
TTITLE7=Patience
TTITLE8=Speechless
TTITLE9=Bird's Eye
TTITLE10=Residue
TTITLE11=Reconstruction
TTITLE12=Loss
EXTD=YEAR: 2006
EXTT0=
EXTT1=
EXTT2=
EXTT3=
EXTT4=
EXTT5=
EXTT6=
EXTT7=
EXTT8=
EXTT9=
EXTT10=
EXTT11=
EXTT12=
PLAYORDER=
